<mxfile host="app.diagrams.net" agent="Mozilla/5.0 (Windows NT 10.0; Win64; x64) AppleWebKit/537.36 (KHTML, like Gecko) Chrome/130.0.0.0 Safari/537.36" version="24.8.3">
  <diagram name="Page-1" id="2YBvvXClWsGukQMizWep">
    <mxGraphModel dx="2593" dy="933" grid="1" gridSize="10" guides="1" tooltips="1" connect="1" arrows="1" fold="1" page="1" pageScale="1" pageWidth="850" pageHeight="1100" math="0" shadow="0">
      <root>
        <mxCell id="0" />
        <mxCell id="1" parent="0" />
        <mxCell id="Wa8ZbeFsFp4bKfGHlGqo-1" value="Авторизованный&amp;nbsp;&lt;div&gt;пользователь&lt;/div&gt;" style="shape=umlActor;verticalLabelPosition=bottom;verticalAlign=top;html=1;outlineConnect=0;" parent="1" vertex="1">
          <mxGeometry x="162.5" y="30" width="20" height="40" as="geometry" />
        </mxCell>
        <mxCell id="Wa8ZbeFsFp4bKfGHlGqo-2" value="" style="rounded=0;whiteSpace=wrap;html=1;strokeColor=#3D6FA8;align=center;verticalAlign=middle;fontFamily=Helvetica;fontSize=12;fontColor=default;fillColor=default;gradientColor=#95cddf;" parent="1" vertex="1">
          <mxGeometry x="165" y="120" width="15" height="680" as="geometry" />
        </mxCell>
        <mxCell id="Wa8ZbeFsFp4bKfGHlGqo-3" value="Уведомления" style="rounded=0;whiteSpace=wrap;html=1;gradientColor=#95cddf;strokeColor=#3D6FA8;" parent="1" vertex="1">
          <mxGeometry x="270" y="50" width="80" height="30" as="geometry" />
        </mxCell>
        <mxCell id="Wa8ZbeFsFp4bKfGHlGqo-4" value="" style="rounded=0;whiteSpace=wrap;html=1;strokeColor=#3D6FA8;align=center;verticalAlign=middle;fontFamily=Helvetica;fontSize=12;fontColor=default;fillColor=default;gradientColor=#95cddf;" parent="1" vertex="1">
          <mxGeometry x="305" y="120" width="10" height="60" as="geometry" />
        </mxCell>
        <mxCell id="Wa8ZbeFsFp4bKfGHlGqo-6" value="" style="endArrow=none;dashed=1;html=1;rounded=0;entryX=0.5;entryY=1;entryDx=0;entryDy=0;exitX=0.5;exitY=0;exitDx=0;exitDy=0;" parent="1" source="Wa8ZbeFsFp4bKfGHlGqo-4" target="Wa8ZbeFsFp4bKfGHlGqo-3" edge="1">
          <mxGeometry width="50" height="50" relative="1" as="geometry">
            <mxPoint x="355" y="220" as="sourcePoint" />
            <mxPoint x="360" y="75" as="targetPoint" />
          </mxGeometry>
        </mxCell>
        <mxCell id="Wa8ZbeFsFp4bKfGHlGqo-7" value="" style="endArrow=none;dashed=1;html=1;rounded=0;entryX=0.5;entryY=1;entryDx=0;entryDy=0;" parent="1" source="Wa8ZbeFsFp4bKfGHlGqo-8" target="Wa8ZbeFsFp4bKfGHlGqo-4" edge="1">
          <mxGeometry width="50" height="50" relative="1" as="geometry">
            <mxPoint x="310" y="200" as="sourcePoint" />
            <mxPoint x="385" y="150" as="targetPoint" />
          </mxGeometry>
        </mxCell>
        <mxCell id="Wa8ZbeFsFp4bKfGHlGqo-9" value="Карта отделений" style="rounded=0;whiteSpace=wrap;html=1;strokeColor=#3D6FA8;align=center;verticalAlign=middle;fontFamily=Helvetica;fontSize=12;fontColor=default;fillColor=default;gradientColor=#95cddf;" parent="1" vertex="1">
          <mxGeometry x="370" y="50" width="90" height="30" as="geometry" />
        </mxCell>
        <mxCell id="Wa8ZbeFsFp4bKfGHlGqo-10" value="Каталог кассет" style="rounded=0;whiteSpace=wrap;html=1;strokeColor=#3D6FA8;align=center;verticalAlign=middle;fontFamily=Helvetica;fontSize=12;fontColor=default;fillColor=default;gradientColor=#95cddf;" parent="1" vertex="1">
          <mxGeometry x="480" y="50" width="80" height="29" as="geometry" />
        </mxCell>
        <mxCell id="Wa8ZbeFsFp4bKfGHlGqo-12" value="Расписание сеансов" style="rounded=0;whiteSpace=wrap;html=1;strokeColor=#3D6FA8;align=center;verticalAlign=middle;fontFamily=Helvetica;fontSize=12;fontColor=default;fillColor=default;gradientColor=#95cddf;" parent="1" vertex="1">
          <mxGeometry x="580" y="50" width="80" height="30" as="geometry" />
        </mxCell>
        <mxCell id="Wa8ZbeFsFp4bKfGHlGqo-13" value="Инф. о пользователе" style="rounded=0;whiteSpace=wrap;html=1;strokeColor=#3D6FA8;align=center;verticalAlign=middle;fontFamily=Helvetica;fontSize=12;fontColor=default;fillColor=default;gradientColor=#95cddf;" parent="1" vertex="1">
          <mxGeometry x="680" y="50" width="80" height="30" as="geometry" />
        </mxCell>
        <mxCell id="Wa8ZbeFsFp4bKfGHlGqo-14" value="&lt;font style=&quot;font-size: 7px;&quot;&gt;Посмотреть уведомления&lt;/font&gt;" style="endArrow=classic;html=1;rounded=0;entryX=0.186;entryY=0.58;entryDx=0;entryDy=0;entryPerimeter=0;strokeWidth=1;" parent="1" edge="1">
          <mxGeometry width="50" height="50" relative="1" as="geometry">
            <mxPoint x="180" y="150" as="sourcePoint" />
            <mxPoint x="306.86" y="150.60000000000002" as="targetPoint" />
          </mxGeometry>
        </mxCell>
        <mxCell id="Wa8ZbeFsFp4bKfGHlGqo-15" value="&lt;span style=&quot;font-size: 7px;&quot;&gt;Вернуть список&lt;/span&gt;" style="endArrow=classic;html=1;rounded=0;dashed=1;" parent="1" edge="1">
          <mxGeometry width="50" height="50" relative="1" as="geometry">
            <mxPoint x="305" y="170" as="sourcePoint" />
            <mxPoint x="180" y="170" as="targetPoint" />
          </mxGeometry>
        </mxCell>
        <mxCell id="Wa8ZbeFsFp4bKfGHlGqo-16" value="" style="rounded=0;whiteSpace=wrap;html=1;strokeColor=#3D6FA8;align=center;verticalAlign=middle;fontFamily=Helvetica;fontSize=12;fontColor=default;fillColor=default;gradientColor=#95cddf;" parent="1" vertex="1">
          <mxGeometry x="410" y="200" width="10" height="110" as="geometry" />
        </mxCell>
        <mxCell id="Wa8ZbeFsFp4bKfGHlGqo-17" value="&lt;font style=&quot;font-size: 7px;&quot;&gt;Посмотреть и выбрать отделение&lt;/font&gt;" style="endArrow=classic;html=1;rounded=0;entryX=0.238;entryY=0.369;entryDx=0;entryDy=0;entryPerimeter=0;" parent="1" edge="1">
          <mxGeometry width="50" height="50" relative="1" as="geometry">
            <mxPoint x="180" y="210" as="sourcePoint" />
            <mxPoint x="412.3799999999999" y="210.58999999999992" as="targetPoint" />
          </mxGeometry>
        </mxCell>
        <mxCell id="Wa8ZbeFsFp4bKfGHlGqo-18" value="" style="endArrow=none;dashed=1;html=1;rounded=0;entryX=0.5;entryY=1;entryDx=0;entryDy=0;exitX=0.5;exitY=0;exitDx=0;exitDy=0;" parent="1" source="Wa8ZbeFsFp4bKfGHlGqo-16" target="Wa8ZbeFsFp4bKfGHlGqo-9" edge="1">
          <mxGeometry width="50" height="50" relative="1" as="geometry">
            <mxPoint x="410" y="200" as="sourcePoint" />
            <mxPoint x="460" y="150" as="targetPoint" />
          </mxGeometry>
        </mxCell>
        <mxCell id="Wa8ZbeFsFp4bKfGHlGqo-19" value="" style="rounded=0;whiteSpace=wrap;html=1;strokeColor=#3D6FA8;align=center;verticalAlign=middle;fontFamily=Helvetica;fontSize=12;fontColor=default;fillColor=default;gradientColor=#95cddf;" parent="1" vertex="1">
          <mxGeometry x="615" y="210" width="10" height="100" as="geometry" />
        </mxCell>
        <mxCell id="Wa8ZbeFsFp4bKfGHlGqo-20" value="&lt;span style=&quot;font-size: 7px;&quot;&gt;Смотреть &lt;br&gt;отзывы&lt;/span&gt;" style="endArrow=classic;html=1;rounded=0;exitX=0.92;exitY=0.076;exitDx=0;exitDy=0;exitPerimeter=0;entryX=1;entryY=0.25;entryDx=0;entryDy=0;" parent="1" edge="1">
          <mxGeometry x="0.0029" y="20" width="50" height="50" relative="1" as="geometry">
            <mxPoint x="420.00000000000006" y="200" as="sourcePoint" />
            <mxPoint x="420.8" y="221.66000000000003" as="targetPoint" />
            <Array as="points">
              <mxPoint x="450" y="210" />
            </Array>
            <mxPoint x="13" y="-19" as="offset" />
          </mxGeometry>
        </mxCell>
        <mxCell id="Wa8ZbeFsFp4bKfGHlGqo-21" value="&lt;font style=&quot;font-size: 7px;&quot;&gt;Смотреть &lt;br&gt;график&lt;/font&gt;" style="endArrow=classic;html=1;rounded=0;entryX=0.84;entryY=0.648;entryDx=0;entryDy=0;entryPerimeter=0;" parent="1" edge="1" target="Wa8ZbeFsFp4bKfGHlGqo-16">
          <mxGeometry x="-0.0296" y="20" width="50" height="50" relative="1" as="geometry">
            <mxPoint x="420" y="250" as="sourcePoint" />
            <mxPoint x="420.4" y="276.79999999999995" as="targetPoint" />
            <Array as="points">
              <mxPoint x="450" y="260" />
            </Array>
            <mxPoint x="13" y="-19" as="offset" />
          </mxGeometry>
        </mxCell>
        <mxCell id="Wa8ZbeFsFp4bKfGHlGqo-22" value="&lt;font style=&quot;font-size: 7px;&quot;&gt;Выбрать киносеанс&lt;/font&gt;" style="endArrow=classic;html=1;rounded=0;entryX=0;entryY=0.5;entryDx=0;entryDy=0;" parent="1" edge="1">
          <mxGeometry width="50" height="50" relative="1" as="geometry">
            <mxPoint x="420" y="230" as="sourcePoint" />
            <mxPoint x="615" y="230" as="targetPoint" />
            <Array as="points">
              <mxPoint x="460" y="230" />
            </Array>
          </mxGeometry>
        </mxCell>
        <mxCell id="Wa8ZbeFsFp4bKfGHlGqo-23" value="&lt;font style=&quot;font-size: 7px;&quot;&gt;Забронировать&lt;br&gt;место&lt;/font&gt;" style="endArrow=classic;html=1;rounded=0;exitX=1.057;exitY=0.046;exitDx=0;exitDy=0;exitPerimeter=0;entryX=1.067;entryY=0.407;entryDx=0;entryDy=0;entryPerimeter=0;" parent="1" edge="1" target="Wa8ZbeFsFp4bKfGHlGqo-19">
          <mxGeometry x="-0.0229" y="29" width="50" height="50" relative="1" as="geometry">
            <mxPoint x="626.7099999999999" y="230.00000000000003" as="sourcePoint" />
            <mxPoint x="624.9999999999999" y="265.4" as="targetPoint" />
            <Array as="points">
              <mxPoint x="651" y="240" />
            </Array>
            <mxPoint x="18" y="-27" as="offset" />
          </mxGeometry>
        </mxCell>
        <mxCell id="Wa8ZbeFsFp4bKfGHlGqo-24" value="&lt;font style=&quot;font-size: 7px;&quot;&gt;Отменить &lt;br&gt;бронь&lt;/font&gt;" style="endArrow=classic;html=1;rounded=0;exitX=0.886;exitY=0.651;exitDx=0;exitDy=0;exitPerimeter=0;entryX=0.886;entryY=0.9;entryDx=0;entryDy=0;entryPerimeter=0;" parent="1" edge="1">
          <mxGeometry x="-0.0389" y="30" width="50" height="50" relative="1" as="geometry">
            <mxPoint x="625.0000000000001" y="270" as="sourcePoint" />
            <mxPoint x="625.0000000000001" y="294.9" as="targetPoint" />
            <Array as="points">
              <mxPoint x="650" y="280" />
            </Array>
            <mxPoint x="15" y="-26" as="offset" />
          </mxGeometry>
        </mxCell>
        <mxCell id="Wa8ZbeFsFp4bKfGHlGqo-26" value="" style="endArrow=none;dashed=1;html=1;rounded=0;entryX=0.5;entryY=1;entryDx=0;entryDy=0;" parent="1" target="Wa8ZbeFsFp4bKfGHlGqo-12" edge="1">
          <mxGeometry width="50" height="50" relative="1" as="geometry">
            <mxPoint x="620" y="210" as="sourcePoint" />
            <mxPoint x="670" y="160" as="targetPoint" />
          </mxGeometry>
        </mxCell>
        <mxCell id="Wa8ZbeFsFp4bKfGHlGqo-28" value="&lt;font style=&quot;font-size: 7px;&quot;&gt;Какой номер места забронирован успешно/&lt;br&gt;бронь отменена успешно&lt;/font&gt;" style="endArrow=classic;html=1;rounded=0;entryX=0.929;entryY=0.636;entryDx=0;entryDy=0;entryPerimeter=0;exitX=0.029;exitY=0.611;exitDx=0;exitDy=0;exitPerimeter=0;dashed=1;" parent="1" edge="1">
          <mxGeometry width="50" height="50" relative="1" as="geometry">
            <mxPoint x="616" y="301.14000000000004" as="sourcePoint" />
            <mxPoint x="419.99999999999994" y="300.00000000000006" as="targetPoint" />
          </mxGeometry>
        </mxCell>
        <mxCell id="Wa8ZbeFsFp4bKfGHlGqo-29" value="" style="rounded=0;whiteSpace=wrap;html=1;strokeColor=#3D6FA8;align=center;verticalAlign=middle;fontFamily=Helvetica;fontSize=12;fontColor=default;fillColor=default;gradientColor=#95cddf;" parent="1" vertex="1">
          <mxGeometry x="515" y="330" width="10" height="160" as="geometry" />
        </mxCell>
        <mxCell id="Wa8ZbeFsFp4bKfGHlGqo-30" value="" style="endArrow=none;dashed=1;html=1;rounded=0;exitX=0.5;exitY=0;exitDx=0;exitDy=0;" parent="1" source="Wa8ZbeFsFp4bKfGHlGqo-29" edge="1">
          <mxGeometry width="50" height="50" relative="1" as="geometry">
            <mxPoint x="470" y="130" as="sourcePoint" />
            <mxPoint x="520" y="80" as="targetPoint" />
          </mxGeometry>
        </mxCell>
        <mxCell id="Wa8ZbeFsFp4bKfGHlGqo-31" value="" style="endArrow=none;dashed=1;html=1;rounded=0;entryX=0.5;entryY=1;entryDx=0;entryDy=0;exitX=0.44;exitY=0.64;exitDx=0;exitDy=0;exitPerimeter=0;" parent="1" source="Wa8ZbeFsFp4bKfGHlGqo-66" target="Wa8ZbeFsFp4bKfGHlGqo-16" edge="1">
          <mxGeometry width="50" height="50" relative="1" as="geometry">
            <mxPoint x="415" y="320" as="sourcePoint" />
            <mxPoint x="420" y="310" as="targetPoint" />
          </mxGeometry>
        </mxCell>
        <mxCell id="Wa8ZbeFsFp4bKfGHlGqo-35" value="" style="shape=umlDestroy;whiteSpace=wrap;html=1;strokeWidth=3;targetShapes=umlLifeline;" parent="1" vertex="1">
          <mxGeometry x="615" y="330" width="10" height="10" as="geometry" />
        </mxCell>
        <mxCell id="Wa8ZbeFsFp4bKfGHlGqo-36" value="" style="endArrow=none;dashed=1;html=1;rounded=0;entryX=0.5;entryY=1;entryDx=0;entryDy=0;" parent="1" target="Wa8ZbeFsFp4bKfGHlGqo-19" edge="1">
          <mxGeometry width="50" height="50" relative="1" as="geometry">
            <mxPoint x="620" y="330" as="sourcePoint" />
            <mxPoint x="670" y="280" as="targetPoint" />
          </mxGeometry>
        </mxCell>
        <mxCell id="Wa8ZbeFsFp4bKfGHlGqo-37" value="&lt;font style=&quot;font-size: 7px;&quot;&gt;Посмотреть каталог&lt;/font&gt;" style="endArrow=classic;html=1;rounded=0;entryX=0;entryY=0.25;entryDx=0;entryDy=0;" parent="1" edge="1">
          <mxGeometry width="50" height="50" relative="1" as="geometry">
            <mxPoint x="180" y="340" as="sourcePoint" />
            <mxPoint x="515" y="342.5" as="targetPoint" />
          </mxGeometry>
        </mxCell>
        <mxCell id="Wa8ZbeFsFp4bKfGHlGqo-39" value="&lt;font style=&quot;font-size: 7px;&quot;&gt;Посмотреть инф.&lt;/font&gt;" style="endArrow=classic;html=1;rounded=0;entryX=0.994;entryY=0.19;entryDx=0;entryDy=0;exitX=1.057;exitY=0.057;exitDx=0;exitDy=0;exitPerimeter=0;entryPerimeter=0;" parent="1" target="Wa8ZbeFsFp4bKfGHlGqo-29" edge="1">
          <mxGeometry x="-0.0031" y="40" width="50" height="50" relative="1" as="geometry">
            <mxPoint x="525.57" y="340" as="sourcePoint" />
            <mxPoint x="525" y="370.88" as="targetPoint" />
            <Array as="points">
              <mxPoint x="560" y="350.88" />
            </Array>
            <mxPoint x="29" y="-39" as="offset" />
          </mxGeometry>
        </mxCell>
        <mxCell id="Wa8ZbeFsFp4bKfGHlGqo-40" value="&lt;font style=&quot;font-size: 7px;&quot;&gt;Заказать кассету&lt;/font&gt;" style="endArrow=classic;html=1;rounded=0;entryX=0.98;entryY=0.383;entryDx=0;entryDy=0;exitX=1;exitY=0.25;exitDx=0;exitDy=0;entryPerimeter=0;" parent="1" source="Wa8ZbeFsFp4bKfGHlGqo-29" edge="1" target="Wa8ZbeFsFp4bKfGHlGqo-29">
          <mxGeometry x="-0.0077" y="40" width="50" height="50" relative="1" as="geometry">
            <mxPoint x="530" y="370" as="sourcePoint" />
            <mxPoint x="525" y="393" as="targetPoint" />
            <Array as="points">
              <mxPoint x="560" y="380" />
            </Array>
            <mxPoint x="28" y="-38" as="offset" />
          </mxGeometry>
        </mxCell>
        <mxCell id="Wa8ZbeFsFp4bKfGHlGqo-41" value="&lt;font style=&quot;font-size: 7px;&quot;&gt;Отменить заказ&lt;/font&gt;" style="endArrow=classic;html=1;rounded=0;entryX=0.98;entryY=0.566;entryDx=0;entryDy=0;exitX=0.962;exitY=0.416;exitDx=0;exitDy=0;exitPerimeter=0;entryPerimeter=0;" parent="1" source="Wa8ZbeFsFp4bKfGHlGqo-29" edge="1" target="Wa8ZbeFsFp4bKfGHlGqo-29">
          <mxGeometry x="0.0018" y="40" width="50" height="50" relative="1" as="geometry">
            <mxPoint x="530" y="398.5" as="sourcePoint" />
            <mxPoint x="525" y="421.5" as="targetPoint" />
            <Array as="points">
              <mxPoint x="560" y="408.5" />
            </Array>
            <mxPoint x="27" y="-36" as="offset" />
          </mxGeometry>
        </mxCell>
        <mxCell id="Wa8ZbeFsFp4bKfGHlGqo-42" value="&lt;font style=&quot;font-size: 7px;&quot;&gt;Написать отзыв&lt;/font&gt;" style="endArrow=classic;html=1;rounded=0;entryX=1;entryY=0.25;entryDx=0;entryDy=0;" parent="1" edge="1">
          <mxGeometry x="0.0068" y="40" width="50" height="50" relative="1" as="geometry">
            <mxPoint x="525" y="420" as="sourcePoint" />
            <mxPoint x="525" y="447.4" as="targetPoint" />
            <Array as="points">
              <mxPoint x="560" y="434.4" />
            </Array>
            <mxPoint x="26" y="-42" as="offset" />
          </mxGeometry>
        </mxCell>
        <mxCell id="Wa8ZbeFsFp4bKfGHlGqo-43" value="&lt;font style=&quot;font-size: 7px;&quot;&gt;Добавить в список&lt;/font&gt;&lt;div style=&quot;font-size: 7px;&quot;&gt;&lt;font style=&quot;font-size: 7px;&quot;&gt;желаемого&lt;/font&gt;&lt;/div&gt;" style="endArrow=classic;html=1;rounded=0;entryX=1;entryY=0.25;entryDx=0;entryDy=0;exitX=1;exitY=0.75;exitDx=0;exitDy=0;" parent="1" edge="1" source="Wa8ZbeFsFp4bKfGHlGqo-29">
          <mxGeometry x="-0.018" y="40" width="50" height="50" relative="1" as="geometry">
            <mxPoint x="530" y="448.5" as="sourcePoint" />
            <mxPoint x="525" y="471.5" as="targetPoint" />
            <Array as="points">
              <mxPoint x="560" y="458.5" />
            </Array>
            <mxPoint x="26" y="-36" as="offset" />
          </mxGeometry>
        </mxCell>
        <mxCell id="Wa8ZbeFsFp4bKfGHlGqo-44" value="&lt;font style=&quot;font-size: 7px;&quot;&gt;Информация о профиле&lt;/font&gt;" style="endArrow=classic;html=1;rounded=0;entryX=0.973;entryY=0.354;entryDx=0;entryDy=0;entryPerimeter=0;dashed=1;" parent="1" target="Wa8ZbeFsFp4bKfGHlGqo-2" edge="1">
          <mxGeometry width="50" height="50" relative="1" as="geometry">
            <mxPoint x="515" y="360.52" as="sourcePoint" />
            <mxPoint x="186.005" y="359.9999999999999" as="targetPoint" />
          </mxGeometry>
        </mxCell>
        <mxCell id="Wa8ZbeFsFp4bKfGHlGqo-46" value="" style="endArrow=none;dashed=1;html=1;rounded=0;entryX=0.5;entryY=1;entryDx=0;entryDy=0;" parent="1" source="Wa8ZbeFsFp4bKfGHlGqo-67" edge="1">
          <mxGeometry width="50" height="50" relative="1" as="geometry">
            <mxPoint x="519.83" y="510" as="sourcePoint" />
            <mxPoint x="519.83" y="490" as="targetPoint" />
          </mxGeometry>
        </mxCell>
        <mxCell id="Wa8ZbeFsFp4bKfGHlGqo-47" value="" style="rounded=0;whiteSpace=wrap;html=1;strokeColor=#3D6FA8;align=center;verticalAlign=middle;fontFamily=Helvetica;fontSize=12;fontColor=default;fillColor=default;gradientColor=#95cddf;" parent="1" vertex="1">
          <mxGeometry x="715" y="520" width="10" height="100" as="geometry" />
        </mxCell>
        <mxCell id="Wa8ZbeFsFp4bKfGHlGqo-48" value="" style="endArrow=none;dashed=1;html=1;rounded=0;entryX=0.5;entryY=1;entryDx=0;entryDy=0;exitX=0.5;exitY=0;exitDx=0;exitDy=0;" parent="1" source="Wa8ZbeFsFp4bKfGHlGqo-47" target="Wa8ZbeFsFp4bKfGHlGqo-13" edge="1">
          <mxGeometry width="50" height="50" relative="1" as="geometry">
            <mxPoint x="720" y="480" as="sourcePoint" />
            <mxPoint x="770" y="430" as="targetPoint" />
          </mxGeometry>
        </mxCell>
        <mxCell id="Wa8ZbeFsFp4bKfGHlGqo-49" value="" style="shape=umlDestroy;whiteSpace=wrap;html=1;strokeWidth=3;targetShapes=umlLifeline;" parent="1" vertex="1">
          <mxGeometry x="715" y="650" width="10" height="10" as="geometry" />
        </mxCell>
        <mxCell id="Wa8ZbeFsFp4bKfGHlGqo-50" value="" style="endArrow=none;dashed=1;html=1;rounded=0;entryX=0.5;entryY=1;entryDx=0;entryDy=0;exitX=0.5;exitY=0;exitDx=0;exitDy=0;exitPerimeter=0;" parent="1" source="Wa8ZbeFsFp4bKfGHlGqo-49" target="Wa8ZbeFsFp4bKfGHlGqo-47" edge="1">
          <mxGeometry width="50" height="50" relative="1" as="geometry">
            <mxPoint x="720" y="600" as="sourcePoint" />
            <mxPoint x="770" y="550" as="targetPoint" />
          </mxGeometry>
        </mxCell>
        <mxCell id="Wa8ZbeFsFp4bKfGHlGqo-51" value="&lt;font style=&quot;font-size: 7px;&quot;&gt;Посмотреть свой профиль&lt;/font&gt;" style="endArrow=classic;html=1;rounded=0;exitX=1.067;exitY=0.567;exitDx=0;exitDy=0;exitPerimeter=0;entryX=0.029;entryY=0.294;entryDx=0;entryDy=0;entryPerimeter=0;" parent="1" edge="1">
          <mxGeometry width="50" height="50" relative="1" as="geometry">
            <mxPoint x="180.00499999999988" y="530" as="sourcePoint" />
            <mxPoint x="714.29" y="533.8400000000001" as="targetPoint" />
          </mxGeometry>
        </mxCell>
        <mxCell id="Wa8ZbeFsFp4bKfGHlGqo-53" value="&lt;font style=&quot;font-size: 7px;&quot;&gt;Посмотреть список&amp;nbsp;&lt;/font&gt;&lt;div&gt;&lt;font style=&quot;font-size: 7px;&quot;&gt;желаемого&lt;/font&gt;&lt;/div&gt;" style="endArrow=classic;html=1;rounded=0;entryX=0.995;entryY=0.3;entryDx=0;entryDy=0;entryPerimeter=0;exitX=1.035;exitY=0.098;exitDx=0;exitDy=0;exitPerimeter=0;" parent="1" source="Wa8ZbeFsFp4bKfGHlGqo-47" target="Wa8ZbeFsFp4bKfGHlGqo-47" edge="1">
          <mxGeometry x="-0.0055" y="41" width="50" height="50" relative="1" as="geometry">
            <mxPoint x="730" y="530" as="sourcePoint" />
            <mxPoint x="740" y="550" as="targetPoint" />
            <Array as="points">
              <mxPoint x="750" y="540" />
            </Array>
            <mxPoint x="25" y="-48" as="offset" />
          </mxGeometry>
        </mxCell>
        <mxCell id="Wa8ZbeFsFp4bKfGHlGqo-54" value="&lt;font style=&quot;font-size: 7px;&quot;&gt;Посмотреть историю&lt;/font&gt;&lt;div style=&quot;font-size: 7px;&quot;&gt;&lt;font style=&quot;font-size: 7px;&quot;&gt;&amp;nbsp;действий&lt;/font&gt;&lt;/div&gt;" style="endArrow=classic;html=1;rounded=0;entryX=0.994;entryY=0.6;entryDx=0;entryDy=0;entryPerimeter=0;exitX=0.994;exitY=0.398;exitDx=0;exitDy=0;exitPerimeter=0;" parent="1" target="Wa8ZbeFsFp4bKfGHlGqo-47" edge="1" source="Wa8ZbeFsFp4bKfGHlGqo-47">
          <mxGeometry x="0.0014" y="40" width="50" height="50" relative="1" as="geometry">
            <mxPoint x="724" y="550" as="sourcePoint" />
            <mxPoint x="740" y="580" as="targetPoint" />
            <Array as="points">
              <mxPoint x="750" y="570" />
            </Array>
            <mxPoint x="25" y="-37" as="offset" />
          </mxGeometry>
        </mxCell>
        <mxCell id="Wa8ZbeFsFp4bKfGHlGqo-55" value="" style="endArrow=none;dashed=1;html=1;rounded=0;exitX=0.5;exitY=0;exitDx=0;exitDy=0;" parent="1" edge="1" target="Wa8ZbeFsFp4bKfGHlGqo-1" source="Wa8ZbeFsFp4bKfGHlGqo-2">
          <mxGeometry width="50" height="50" relative="1" as="geometry">
            <mxPoint x="170" y="120" as="sourcePoint" />
            <mxPoint x="170" y="100" as="targetPoint" />
          </mxGeometry>
        </mxCell>
        <mxCell id="Wa8ZbeFsFp4bKfGHlGqo-56" value="" style="endArrow=none;dashed=1;html=1;rounded=0;entryX=0.5;entryY=1;entryDx=0;entryDy=0;" parent="1" target="Wa8ZbeFsFp4bKfGHlGqo-2" edge="1">
          <mxGeometry width="50" height="50" relative="1" as="geometry">
            <mxPoint x="173" y="830" as="sourcePoint" />
            <mxPoint x="180" y="800" as="targetPoint" />
          </mxGeometry>
        </mxCell>
        <mxCell id="Wa8ZbeFsFp4bKfGHlGqo-57" value="" style="shape=umlDestroy;whiteSpace=wrap;html=1;strokeWidth=3;targetShapes=umlLifeline;" parent="1" vertex="1">
          <mxGeometry x="167.5" y="830" width="10" height="10" as="geometry" />
        </mxCell>
        <mxCell id="Wa8ZbeFsFp4bKfGHlGqo-58" value="Неавторизованный&lt;div&gt;&amp;nbsp;пользователь&lt;/div&gt;" style="shape=umlActor;verticalLabelPosition=bottom;verticalAlign=top;html=1;outlineConnect=0;" parent="1" vertex="1">
          <mxGeometry x="49" y="30" width="20" height="40" as="geometry" />
        </mxCell>
        <mxCell id="Wa8ZbeFsFp4bKfGHlGqo-59" value="" style="rounded=0;whiteSpace=wrap;html=1;strokeColor=#3D6FA8;align=center;verticalAlign=middle;fontFamily=Helvetica;fontSize=12;fontColor=default;fillColor=default;gradientColor=#95cddf;" parent="1" vertex="1">
          <mxGeometry x="53" y="130" width="12" height="20" as="geometry" />
        </mxCell>
        <mxCell id="Wa8ZbeFsFp4bKfGHlGqo-60" value="" style="endArrow=none;dashed=1;html=1;rounded=0;exitX=0.5;exitY=0;exitDx=0;exitDy=0;" parent="1" source="Wa8ZbeFsFp4bKfGHlGqo-59" edge="1" target="Wa8ZbeFsFp4bKfGHlGqo-58">
          <mxGeometry width="50" height="50" relative="1" as="geometry">
            <mxPoint x="70" y="130" as="sourcePoint" />
            <mxPoint x="75" y="120" as="targetPoint" />
          </mxGeometry>
        </mxCell>
        <mxCell id="Wa8ZbeFsFp4bKfGHlGqo-63" value="&lt;font style=&quot;font-size: 8px;&quot;&gt;Авторизация&lt;/font&gt;" style="endArrow=classic;html=1;rounded=0;exitX=1;exitY=0.5;exitDx=0;exitDy=0;entryX=0.076;entryY=0.029;entryDx=0;entryDy=0;entryPerimeter=0;" parent="1" source="Wa8ZbeFsFp4bKfGHlGqo-59" target="Wa8ZbeFsFp4bKfGHlGqo-2" edge="1">
          <mxGeometry x="-0.0839" width="50" height="50" relative="1" as="geometry">
            <mxPoint x="110" y="150" as="sourcePoint" />
            <mxPoint x="160" y="100" as="targetPoint" />
            <mxPoint as="offset" />
          </mxGeometry>
        </mxCell>
        <mxCell id="Wa8ZbeFsFp4bKfGHlGqo-65" value="" style="endArrow=none;dashed=1;html=1;rounded=0;entryX=0.5;entryY=1;entryDx=0;entryDy=0;" parent="1" target="Wa8ZbeFsFp4bKfGHlGqo-8" edge="1">
          <mxGeometry width="50" height="50" relative="1" as="geometry">
            <mxPoint x="310" y="200" as="sourcePoint" />
            <mxPoint x="310" y="180" as="targetPoint" />
          </mxGeometry>
        </mxCell>
        <mxCell id="Wa8ZbeFsFp4bKfGHlGqo-8" value="" style="shape=umlDestroy;whiteSpace=wrap;html=1;strokeWidth=3;targetShapes=umlLifeline;" parent="1" vertex="1">
          <mxGeometry x="305" y="190" width="10" height="10" as="geometry" />
        </mxCell>
        <mxCell id="Wa8ZbeFsFp4bKfGHlGqo-66" value="" style="shape=umlDestroy;whiteSpace=wrap;html=1;strokeWidth=3;targetShapes=umlLifeline;" parent="1" vertex="1">
          <mxGeometry x="410" y="320" width="10" height="10" as="geometry" />
        </mxCell>
        <mxCell id="Wa8ZbeFsFp4bKfGHlGqo-68" value="" style="endArrow=none;dashed=1;html=1;rounded=0;entryX=0.5;entryY=1;entryDx=0;entryDy=0;" parent="1" target="Wa8ZbeFsFp4bKfGHlGqo-67" edge="1">
          <mxGeometry width="50" height="50" relative="1" as="geometry">
            <mxPoint x="519.83" y="510" as="sourcePoint" />
            <mxPoint x="519.83" y="490" as="targetPoint" />
          </mxGeometry>
        </mxCell>
        <mxCell id="Wa8ZbeFsFp4bKfGHlGqo-67" value="" style="shape=umlDestroy;whiteSpace=wrap;html=1;strokeWidth=3;targetShapes=umlLifeline;" parent="1" vertex="1">
          <mxGeometry x="515" y="500" width="10" height="10" as="geometry" />
        </mxCell>
        <mxCell id="Wa8ZbeFsFp4bKfGHlGqo-69" value="&lt;font style=&quot;font-size: 7px;&quot;&gt;Название кассеты и успешность её заказа&lt;/font&gt;" style="endArrow=classic;html=1;rounded=0;entryX=0.973;entryY=0.354;entryDx=0;entryDy=0;entryPerimeter=0;dashed=1;" parent="1" edge="1">
          <mxGeometry width="50" height="50" relative="1" as="geometry">
            <mxPoint x="515" y="390" as="sourcePoint" />
            <mxPoint x="180" y="390.48" as="targetPoint" />
          </mxGeometry>
        </mxCell>
        <mxCell id="Wa8ZbeFsFp4bKfGHlGqo-72" value="&lt;font style=&quot;font-size: 7px;&quot;&gt;Обновить&lt;br&gt;данные&lt;/font&gt;" style="endArrow=classic;html=1;rounded=0;entryX=0;entryY=0.5;entryDx=0;entryDy=0;exitX=-0.038;exitY=0.719;exitDx=0;exitDy=0;exitPerimeter=0;dashed=1;" parent="1" source="Wa8ZbeFsFp4bKfGHlGqo-19" target="Wa8ZbeFsFp4bKfGHlGqo-19" edge="1">
          <mxGeometry x="0.0028" y="22" width="50" height="50" relative="1" as="geometry">
            <mxPoint x="545.57" y="250" as="sourcePoint" />
            <mxPoint x="545" y="280.88" as="targetPoint" />
            <Array as="points">
              <mxPoint x="580" y="270" />
            </Array>
            <mxPoint x="-14" y="11" as="offset" />
          </mxGeometry>
        </mxCell>
        <mxCell id="Wa8ZbeFsFp4bKfGHlGqo-73" value="&lt;font style=&quot;font-size: 7px;&quot;&gt;Обновить &lt;br&gt;данные&lt;/font&gt;" style="endArrow=classic;html=1;rounded=0;entryX=-0.004;entryY=0.873;entryDx=0;entryDy=0;exitX=-0.038;exitY=0.719;exitDx=0;exitDy=0;exitPerimeter=0;entryPerimeter=0;dashed=1;" parent="1" target="Wa8ZbeFsFp4bKfGHlGqo-29" edge="1">
          <mxGeometry x="-0.0007" y="-22" width="50" height="50" relative="1" as="geometry">
            <mxPoint x="515" y="490" as="sourcePoint" />
            <mxPoint x="515" y="458" as="targetPoint" />
            <Array as="points">
              <mxPoint x="480" y="480" />
            </Array>
            <mxPoint x="-26" y="-11" as="offset" />
          </mxGeometry>
        </mxCell>
        <mxCell id="Wa8ZbeFsFp4bKfGHlGqo-74" value="&lt;font style=&quot;font-size: 7px;&quot;&gt;Название кассеты и успешность отмены заказа&lt;/font&gt;" style="endArrow=classic;html=1;rounded=0;entryX=0.973;entryY=0.354;entryDx=0;entryDy=0;entryPerimeter=0;dashed=1;" parent="1" edge="1">
          <mxGeometry width="50" height="50" relative="1" as="geometry">
            <mxPoint x="515" y="420" as="sourcePoint" />
            <mxPoint x="180" y="420.48" as="targetPoint" />
          </mxGeometry>
        </mxCell>
        <mxCell id="Wa8ZbeFsFp4bKfGHlGqo-75" value="&lt;span style=&quot;font-size: 7px;&quot;&gt;ID кассеты для добавления в список желаемого&lt;/span&gt;" style="endArrow=classic;html=1;rounded=0;entryX=0.973;entryY=0.354;entryDx=0;entryDy=0;entryPerimeter=0;dashed=1;" parent="1" edge="1">
          <mxGeometry width="50" height="50" relative="1" as="geometry">
            <mxPoint x="515" y="470" as="sourcePoint" />
            <mxPoint x="180" y="470.48" as="targetPoint" />
          </mxGeometry>
        </mxCell>
        <mxCell id="Wa8ZbeFsFp4bKfGHlGqo-76" value="&lt;span style=&quot;font-size: 7px;&quot;&gt;Список желаемого&lt;/span&gt;" style="endArrow=classic;html=1;rounded=0;entryX=0.973;entryY=0.354;entryDx=0;entryDy=0;entryPerimeter=0;dashed=1;exitX=0.01;exitY=0.404;exitDx=0;exitDy=0;exitPerimeter=0;" parent="1" edge="1">
          <mxGeometry width="50" height="50" relative="1" as="geometry">
            <mxPoint x="715.0000000000001" y="550" as="sourcePoint" />
            <mxPoint x="179.9" y="550.08" as="targetPoint" />
          </mxGeometry>
        </mxCell>
        <mxCell id="Wa8ZbeFsFp4bKfGHlGqo-77" value="&lt;span style=&quot;font-size: 7px;&quot;&gt;Журнал действий&lt;/span&gt;" style="endArrow=classic;html=1;rounded=0;entryX=0.973;entryY=0.354;entryDx=0;entryDy=0;entryPerimeter=0;dashed=1;exitX=0.01;exitY=0.404;exitDx=0;exitDy=0;exitPerimeter=0;" parent="1" edge="1">
          <mxGeometry width="50" height="50" relative="1" as="geometry">
            <mxPoint x="715.0000000000001" y="580" as="sourcePoint" />
            <mxPoint x="179.9" y="580.08" as="targetPoint" />
          </mxGeometry>
        </mxCell>
        <mxCell id="7B7YBznqcR6JX6M8vstP-1" value="" style="endArrow=none;dashed=1;html=1;rounded=0;entryX=0.5;entryY=1;entryDx=0;entryDy=0;exitX=0.517;exitY=0.383;exitDx=0;exitDy=0;exitPerimeter=0;" edge="1" parent="1" source="7B7YBznqcR6JX6M8vstP-2" target="Wa8ZbeFsFp4bKfGHlGqo-59">
          <mxGeometry width="50" height="50" relative="1" as="geometry">
            <mxPoint x="59" y="190" as="sourcePoint" />
            <mxPoint x="90" y="180" as="targetPoint" />
          </mxGeometry>
        </mxCell>
        <mxCell id="7B7YBznqcR6JX6M8vstP-2" value="" style="shape=umlDestroy;whiteSpace=wrap;html=1;strokeWidth=3;targetShapes=umlLifeline;" vertex="1" parent="1">
          <mxGeometry x="54" y="180" width="10" height="10" as="geometry" />
        </mxCell>
      </root>
    </mxGraphModel>
  </diagram>
</mxfile>
